<?xml version="1.0" standalone="no"?>
<!DOCTYPE svg PUBLIC "-//W3C//DTD SVG 20010904//EN"
 "http://www.w3.org/TR/2001/REC-SVG-20010904/DTD/svg10.dtd">
<svg version="1.0" xmlns="http://www.w3.org/2000/svg"
 width="474.000000pt" height="474.000000pt" viewBox="0 0 474.000000 474.000000"
 preserveAspectRatio="xMidYMid meet">

<g transform="translate(0.000000,474.000000) scale(0.100000,-0.100000)"
fill="#000000" stroke="none">
<path d="M1658 3500 c-6 -58 -3 -80 11 -80 12 0 12 -2 -1 -17 -15 -18 -18
-128 -5 -179 5 -20 1 -21 -71 -23 -61 -2 -87 -7 -122 -27 -25 -14 -36 -18 -25
-10 36 27 60 48 50 43 -5 -3 -55 1 -110 8 -67 9 -106 10 -119 3 -13 -7 -16 -7
-12 1 4 6 4 11 -1 12 -4 0 -63 8 -130 18 -69 9 -131 14 -143 9 -11 -4 -19 -4
-16 1 7 11 -42 21 -100 21 -31 0 -46 -5 -53 -17 -11 -23 -12 -551 -1 -558 5
-3 5 -17 -1 -32 -5 -15 -6 -30 0 -37 4 -6 5 -20 0 -31 -14 -36 -11 -48 12 -42
l21 6 -21 -20 c-36 -34 -23 -51 22 -28 19 9 18 7 -3 -10 -18 -14 -25 -30 -25
-55 l-1 -34 29 15 c16 8 26 10 23 4 -10 -15 0 -14 34 4 51 26 33 8 -24 -24
-66 -38 -77 -51 -69 -79 5 -22 5 -22 37 -3 78 47 126 72 126 68 0 -3 -35 -25
-77 -50 -74 -42 -78 -47 -80 -81 -1 -24 2 -34 9 -30 7 5 8 2 2 -7 -16 -26 -25
-102 -14 -119 6 -9 14 -8 34 5 14 9 23 21 20 26 -3 5 2 6 10 3 8 -3 31 5 53
19 60 38 86 50 79 38 -9 -14 0 -14 25 -1 10 6 19 9 19 7 0 -3 -54 -37 -120
-76 -66 -40 -119 -75 -118 -79 1 -4 -2 -20 -7 -35 -10 -36 5 -53 33 -38 16 9
20 8 18 -4 -1 -8 -6 -18 -11 -22 -4 -4 -5 -2 -1 5 8 13 -3 16 -20 4 -16 -10
-28 -52 -15 -52 6 0 70 34 143 76 73 42 136 79 141 81 4 2 7 2 7 0 0 -3 -63
-42 -141 -88 -89 -51 -145 -91 -151 -105 -13 -29 -4 -42 20 -28 58 35 132 75
132 71 0 -3 -33 -24 -72 -47 -40 -24 -75 -44 -77 -46 -8 -7 -9 -124 0 -124 5
0 22 7 37 16 25 15 26 15 7 -1 -11 -9 -19 -20 -18 -25 1 -4 -5 -7 -14 -6 -9 0
-17 -8 -19 -21 -2 -13 1 -23 8 -23 9 0 9 -3 0 -12 -14 -14 -16 -38 -3 -38 5 0
42 19 83 43 130 77 188 109 188 104 0 -3 -35 -26 -78 -50 -46 -27 -79 -52 -79
-61 0 -19 2 -19 28 -6 10 6 19 9 19 7 0 -2 -36 -25 -80 -51 -44 -25 -80 -50
-81 -54 0 -4 -2 -15 -4 -24 -4 -22 -2 -22 36 -3 17 9 27 21 23 27 -4 7 -3 8 5
4 6 -4 35 6 64 23 39 22 54 27 54 16 0 -8 -4 -12 -8 -9 -13 8 -116 -55 -116
-71 0 -19 1 -19 38 0 17 9 27 21 23 27 -4 7 -3 8 4 4 6 -4 36 7 67 25 30 17
55 28 55 25 0 -3 -14 -13 -31 -21 -17 -9 -28 -19 -26 -22 3 -3 31 9 62 27 31
18 54 34 51 37 -2 2 -15 -1 -28 -7 -39 -21 -6 6 45 35 26 15 47 24 47 21 0 -3
-14 -13 -31 -21 -17 -9 -28 -19 -26 -22 3 -3 31 9 61 27 31 17 56 29 56 27 0
-2 -48 -33 -107 -68 -320 -187 -322 -189 -320 -209 1 -11 2 -20 3 -20 1 0 69
39 150 86 209 121 240 138 231 128 -5 -5 -90 -57 -190 -115 -137 -81 -184
-113 -191 -133 -14 -37 -2 -41 40 -15 21 12 34 17 30 11 -12 -20 7 -14 74 26
136 79 180 103 180 98 0 -2 -40 -28 -90 -56 -51 -30 -87 -57 -83 -63 3 -6 1
-7 -6 -3 -16 10 -148 -69 -148 -88 0 -13 13 -9 56 16 31 17 76 43 100 57 25
13 41 19 37 13 -10 -17 7 -15 30 4 16 13 16 15 2 10 -25 -7 -22 1 3 15 15 8
19 8 15 0 -11 -18 3 -13 63 21 31 17 52 26 46 21 -5 -6 -82 -52 -170 -103
-163 -95 -193 -115 -183 -125 3 -3 50 20 104 51 156 90 184 106 184 101 0 -2
-41 -28 -90 -57 -54 -30 -88 -56 -84 -62 4 -7 2 -8 -4 -4 -6 4 -26 -1 -43 -10
-22 -11 -28 -18 -20 -24 9 -5 8 -9 -4 -13 -10 -5 -14 -3 -9 4 4 7 1 10 -6 7
-15 -5 -24 -48 -11 -48 8 0 153 82 489 277 23 14 42 23 42 20 0 -3 -68 -44
-150 -92 -135 -79 -178 -108 -135 -91 22 8 18 -2 -6 -15 -15 -8 -19 -8 -15 0
10 16 -7 13 -30 -5 -15 -12 -15 -14 -2 -11 17 6 19 -16 3 -30 -4 -5 -5 -2 0 6
6 11 4 13 -9 8 -10 -4 -15 -3 -11 3 9 14 -1 12 -35 -5 -30 -15 -42 -32 -17
-22 8 3 14 0 14 -7 0 -6 -8 -12 -18 -12 -10 0 -15 4 -13 8 9 14 -7 9 -42 -13
-37 -22 -47 -37 -14 -19 11 6 25 8 30 5 6 -3 16 -3 22 2 7 4 22 9 33 10 58 5
89 19 276 128 112 65 207 120 212 122 4 2 7 2 7 0 0 -2 -86 -55 -190 -117
-105 -62 -189 -114 -188 -115 2 -2 23 1 48 6 25 5 59 12 75 14 17 3 41 8 55
11 14 4 48 7 76 8 39 2 70 13 137 49 48 26 87 45 87 42 0 -2 -14 -12 -31 -20
-17 -9 -28 -19 -26 -22 3 -3 31 9 62 27 31 18 54 34 51 37 -2 2 -14 0 -25 -7
-12 -6 -21 -8 -21 -6 0 3 14 13 31 22 17 8 28 11 25 5 -10 -15 0 -14 34 4 31
16 42 32 15 21 -22 -8 -18 2 6 15 15 8 19 8 15 0 -10 -16 5 -13 39 7 78 48
125 73 125 69 0 -4 -108 -69 -233 -141 -27 -15 -46 -30 -44 -33 3 -2 15 0 26
7 12 6 21 8 21 6 0 -3 -14 -13 -31 -22 -17 -8 -28 -11 -25 -5 11 17 -6 13 -38
-8 l-29 -20 49 5 c27 2 69 7 94 9 25 3 81 7 126 8 61 2 90 8 118 25 45 27 60
28 28 4 -24 -18 -23 -19 39 -15 40 2 75 11 98 24 34 20 35 20 12 1 l-25 -20
55 2 c30 1 65 8 79 16 24 13 24 12 10 -5 -13 -15 -9 -15 29 4 23 12 41 25 38
28 -3 2 -15 0 -26 -7 -12 -6 -21 -8 -21 -6 0 3 14 13 31 22 17 8 28 11 25 5
-11 -18 3 -13 60 20 30 17 54 28 54 26 0 -3 -37 -27 -82 -53 -83 -49 -94 -72
-16 -34 39 19 41 19 19 2 l-24 -19 44 4 c40 4 96 30 217 100 23 14 42 23 42
20 0 -2 -40 -29 -90 -58 -49 -30 -90 -57 -90 -61 0 -11 38 -10 61 2 13 7 19 7
19 0 0 -6 28 -9 68 -9 63 1 73 4 172 61 58 34 108 63 113 65 4 2 7 2 7 -1 0
-2 -25 -19 -55 -36 -54 -31 -72 -48 -37 -36 10 4 7 -2 -8 -14 -14 -11 -29 -20
-34 -20 -6 0 -1 7 10 15 29 22 6 18 -32 -6 -36 -22 -47 -37 -15 -19 25 13 34
13 25 -1 -5 -8 -1 -8 14 0 26 14 35 14 27 1 -3 -6 1 -7 10 -3 11 4 13 8 6 13
-7 3 6 16 29 29 39 22 55 39 25 27 -22 -8 -18 2 6 15 15 8 19 8 15 0 -9 -14 0
-14 25 -1 10 6 19 8 19 6 0 -3 -14 -13 -31 -21 -17 -9 -28 -19 -26 -22 3 -3
31 9 61 27 31 17 56 29 56 27 0 -3 -36 -26 -80 -52 -44 -26 -83 -51 -86 -56
-13 -22 29 -5 126 52 133 77 140 81 140 75 0 -2 -47 -32 -105 -66 -58 -34
-105 -64 -105 -67 0 -3 77 2 98 6 2 1 1 5 -3 10 -3 5 0 13 6 17 8 4 9 3 5 -4
-9 -15 -1 -15 25 -1 11 5 16 15 13 21 -4 7 -3 8 5 4 6 -4 36 7 66 24 30 17 55
29 55 27 0 -3 -32 -23 -70 -46 -39 -23 -68 -46 -65 -51 3 -6 0 -7 -8 -4 -8 3
-17 2 -20 -3 -3 -5 2 -9 11 -10 9 -1 54 -3 100 -6 46 -3 86 -8 89 -11 6 -5
101 43 161 82 12 8 22 12 22 9 0 -4 -33 -25 -72 -49 -71 -42 -72 -43 -41 -46
21 -2 50 6 80 23 26 14 40 20 29 13 -28 -19 -63 -50 -49 -44 6 4 23 2 38 -4
20 -8 35 -6 68 11 l42 20 -25 -21 -25 -22 27 5 c16 2 25 0 22 -5 -4 -6 6 -9
22 -7 16 1 36 -1 45 -5 9 -4 20 -6 25 -5 5 1 22 -1 37 -6 22 -6 39 -2 70 15
l42 22 -30 -27 c-16 -14 -25 -24 -18 -21 6 4 23 2 38 -4 18 -7 33 -7 47 1 13
7 18 7 14 1 -10 -17 12 -24 34 -12 16 8 20 8 18 -2 -2 -8 6 -12 20 -11 13 2
21 -1 17 -7 -8 -13 11 -13 37 1 16 9 19 8 13 -2 -6 -9 -2 -11 13 -7 13 4 20 2
16 -4 -4 -5 9 -8 32 -6 37 3 39 5 40 38 1 19 3 37 4 40 1 3 3 20 5 38 2 27 0
32 -13 27 -14 -5 -13 -3 1 13 22 24 22 36 1 28 -13 -5 -14 -3 -6 6 6 7 11 16
11 21 1 4 1 8 2 10 5 16 6 37 2 37 -3 0 -22 -10 -42 -22 -42 -25 -36 -15 10
16 31 21 32 24 33 99 0 42 0 77 -2 77 -2 0 -13 -5 -25 -11 -17 -8 -16 -5 5 13
25 21 32 48 16 63 -3 4 -20 -1 -37 -10 -42 -21 -39 -12 4 14 34 20 53 46 42
57 -3 3 -30 -9 -61 -26 -75 -42 -72 -32 4 14 48 30 59 41 50 51 -8 9 -8 15 0
20 26 16 7 24 -22 9 l-33 -17 33 31 c24 23 32 38 30 60 -1 21 -6 28 -16 25
-10 -4 -11 -8 -2 -13 8 -5 7 -9 -5 -13 -9 -4 -13 -3 -10 3 10 17 -5 11 -61
-21 -30 -17 -54 -28 -54 -26 0 3 32 23 70 46 39 23 68 46 65 51 -3 5 -1 11 5
15 6 4 8 11 4 16 -5 9 -91 -34 -161 -79 -13 -8 -23 -12 -23 -9 0 4 43 32 95
63 82 49 112 74 88 74 -6 0 -147 -80 -190 -108 -13 -8 -23 -12 -23 -9 0 4 32
25 70 48 39 23 69 44 66 46 -2 3 -14 0 -25 -7 -40 -21 -21 -2 23 24 25 14 50
24 58 23 7 -2 10 -2 5 0 -4 3 -4 10 0 16 13 21 11 36 -4 30 -10 -4 -11 -8 -3
-13 8 -5 7 -9 -5 -13 -9 -4 -13 -3 -10 3 8 13 -1 13 -26 -1 -11 -5 -17 -14
-14 -19 3 -5 0 -12 -6 -16 -8 -4 -9 -3 -5 4 9 15 1 15 -25 2 -10 -6 -19 -8
-19 -6 0 3 30 23 68 45 64 37 67 41 70 80 1 23 -2 41 -8 41 -6 0 -6 7 2 20 28
45 -12 30 -172 -63 -19 -11 -31 -16 -27 -11 5 5 50 34 100 64 70 42 93 61 95
79 3 19 0 23 -15 17 -12 -4 -10 0 7 13 14 11 22 23 18 26 -4 4 -49 -18 -100
-48 -110 -64 -138 -79 -138 -74 0 3 41 28 90 56 81 47 114 73 75 57 -29 -11
-14 3 30 30 39 22 58 44 39 44 -3 0 -54 -28 -112 -61 -132 -76 -129 -74 -120
-64 4 4 58 38 120 75 61 36 114 73 116 80 3 9 -1 11 -12 7 -15 -6 -15 -4 -1
17 14 20 12 56 -2 56 -3 0 -31 -15 -62 -34 -68 -41 -101 -58 -101 -53 0 2 41
28 90 58 50 29 90 59 90 65 0 23 -12 44 -22 38 -6 -4 -5 -10 3 -16 11 -7 9 -8
-4 -4 -10 3 -33 -1 -50 -10 -42 -22 -27 -6 20 20 26 15 37 29 40 50 l4 28 -38
-21 c-23 -13 -28 -15 -14 -4 14 10 34 26 45 36 21 19 21 19 -4 13 -22 -4 -23
-4 -7 8 19 15 24 31 5 20 -9 -5 -9 -2 1 9 11 14 11 17 0 17 -10 1 -9 3 3 10
13 8 16 28 17 116 1 58 -1 110 -4 114 -3 5 -22 0 -43 -11 -20 -11 -29 -14 -18
-7 72 51 67 36 65 186 -1 76 -4 147 -6 160 l-5 23 -34 -20 c-19 -11 -34 -18
-34 -16 0 3 14 14 32 25 61 37 33 69 -50 56 -20 -3 -57 -8 -82 -12 -24 -3 -58
-13 -75 -21 -25 -13 -28 -14 -18 -1 11 12 0 12 -90 1 -56 -7 -112 -18 -125
-23 -17 -7 -21 -7 -16 1 4 8 -3 9 -22 5 -16 -3 -76 -10 -134 -16 -57 -6 -113
-16 -123 -22 -14 -7 -17 -7 -13 1 5 7 -5 11 -27 11 l-34 0 0 93 c0 134 -5 207
-14 201 -5 -3 -6 2 -3 10 8 21 -27 21 -68 0 -16 -9 -27 -11 -23 -5 9 15 -52 9
-84 -8 -15 -8 -21 -9 -17 -2 4 6 4 11 1 11 -4 0 -16 -5 -27 -11 -15 -8 -19 -8
-14 0 9 14 0 14 -25 1 -10 -6 -19 -7 -19 -2 0 11 -159 3 -183 -10 -14 -7 -17
-7 -13 1 11 17 -30 13 -67 -6 -28 -14 -31 -14 -19 0 12 14 5 15 -76 13 -49 -2
-95 -7 -102 -11 -8 -5 -11 -4 -6 3 8 14 -161 11 -183 -2 -10 -7 -12 -6 -6 4 6
10 4 12 -8 7 -9 -3 -29 -2 -46 3 -20 5 -37 4 -54 -5 -20 -10 -25 -10 -21 -1 7
19 -101 19 -140 0 -28 -13 -29 -13 -12 0 32 26 11 29 -36 6 -24 -12 -35 -14
-24 -6 11 9 18 18 15 20 -2 3 -37 6 -77 8 -58 3 -72 0 -74 -12z m1212 -65
c-11 -13 -8 -15 18 -15 17 0 33 4 36 9 3 5 15 11 26 14 13 3 18 1 13 -6 -4 -6
1 -8 15 -5 18 5 20 3 12 -16 -4 -13 -4 -29 0 -36 5 -8 6 -19 2 -25 -3 -5 -7
-43 -8 -83 0 -39 -4 -75 -7 -78 -7 -7 -55 -11 -167 -15 -50 -1 -89 -8 -115
-21 -23 -11 -32 -13 -22 -4 17 13 17 14 -5 14 -13 -1 -36 0 -53 1 -98 8 -312
-2 -340 -15 -27 -14 -28 -14 -11 1 19 14 16 15 -33 15 -29 0 -62 -5 -73 -11
-15 -8 -19 -8 -14 0 4 6 4 11 1 11 -4 0 -16 -5 -27 -11 -12 -7 -18 -7 -14 -1
9 15 -15 21 -41 11 -13 -5 -23 -5 -23 -1 0 5 -34 8 -75 9 -42 0 -78 3 -81 6
-3 2 -29 3 -58 1 -36 -3 -57 0 -64 9 -12 15 -22 83 -13 92 3 3 6 32 7 64 0 32
4 63 7 69 6 8 150 11 167 2 13 -6 77 -4 93 3 10 5 17 4 17 -3 0 -6 35 -9 93
-9 50 1 97 0 102 -1 37 -7 136 -3 163 7 18 7 30 8 27 3 -10 -16 20 -17 49 -3
15 8 25 10 22 4 -7 -10 99 -9 201 2 17 2 30 -1 27 -5 -3 -4 7 -3 21 2 16 6 33
6 43 1 12 -6 28 -3 52 10 43 22 46 23 30 4z m-1640 -210 c0 -2 -10 -9 -22 -15
-22 -11 -22 -10 -4 4 21 17 26 19 26 11z m2400 -10 c0 -2 -10 -9 -22 -15 -22
-11 -22 -10 -4 4 21 17 26 19 26 11z m-2395 -15 c-3 -5 -12 -10 -18 -10 -7 0
-6 4 3 10 19 12 23 12 15 0z m225 -5 c0 -2 -10 -9 -22 -15 -22 -11 -22 -10 -4
4 21 17 26 19 26 11z m570 -40 c0 -2 -10 -9 -22 -15 -22 -11 -22 -10 -4 4 21
17 26 19 26 11z m620 -20 c0 -2 -10 -9 -22 -15 -22 -11 -22 -10 -4 4 21 17 26
19 26 11z m-1789 -656 c-18 -11 -35 -18 -38 -15 -5 5 46 35 62 36 6 0 -5 -9
-24 -21z m59 -4 c0 -2 -10 -9 -22 -15 -22 -11 -22 -10 -4 4 21 17 26 19 26 11z
m2910 -30 c0 -2 -10 -9 -22 -15 -22 -11 -22 -10 -4 4 21 17 26 19 26 11z m70
-110 c0 -2 -10 -9 -22 -15 -22 -11 -22 -10 -4 4 21 17 26 19 26 11z m-155 -14
c-16 -14 -105 -63 -105 -58 0 5 101 66 110 67 2 0 0 -4 -5 -9z m-2855 -6 c0
-6 -56 -35 -67 -35 -4 1 8 9 27 20 39 22 40 22 40 15z m1511 -26 c-30 -25 -15
-24 27 1 18 11 38 20 45 20 15 0 17 -91 2 -102 -6 -5 -6 -11 2 -19 8 -8 9 -18
2 -31 -5 -10 -7 -18 -3 -18 3 0 1 -7 -6 -15 -7 -8 -8 -15 -3 -15 5 0 10 -6 10
-12 0 -7 3 -42 6 -78 6 -64 6 -65 -18 -66 -14 -1 -25 2 -25 7 0 6 -8 5 -19 -1
-11 -5 -34 -9 -53 -7 -18 2 -48 0 -65 -4 -18 -4 -33 -4 -34 0 0 3 -2 14 -4 23
-2 10 1 21 7 24 6 4 5 10 -3 16 -10 7 -8 8 8 3 12 -3 24 -1 28 4 4 7 -1 8 -12
4 -16 -6 -17 -5 -3 12 14 17 14 18 -7 7 -30 -16 -39 12 -11 37 l20 20 -23 -6
c-21 -6 -22 -4 -12 9 7 8 11 17 8 19 -2 3 -6 19 -10 36 -4 25 0 35 17 48 21
15 21 16 3 11 -18 -5 -20 -1 -22 42 l-2 47 87 2 87 1 -24 -19z m-1241 -13 c0
-2 -7 -7 -16 -10 -8 -3 -12 -2 -9 4 6 10 25 14 25 6z m-60 -31 c0 -2 -10 -9
-22 -15 -22 -11 -22 -10 -4 4 21 17 26 19 26 11z m-220 -50 c0 -6 -56 -35 -67
-35 -4 1 8 9 27 20 39 22 40 22 40 15z m3010 0 c0 -2 -10 -9 -22 -15 -22 -11
-22 -10 -4 4 21 17 26 19 26 11z m-220 -30 c0 -2 -10 -9 -22 -15 -22 -11 -22
-10 -4 4 21 17 26 19 26 11z m-2500 -50 c0 -2 -13 -11 -30 -20 -38 -19 -40
-11 -2 9 31 17 32 18 32 11z m2550 -80 c0 -2 -10 -9 -22 -15 -22 -11 -22 -10
-4 4 21 17 26 19 26 11z m-2660 -50 c0 -2 -10 -9 -22 -15 -22 -11 -22 -10 -4
4 21 17 26 19 26 11z m-50 -30 c0 -2 -10 -9 -22 -15 -22 -11 -22 -10 -4 4 21
17 26 19 26 11z m2780 -30 c0 -2 -13 -11 -30 -20 -38 -19 -40 -11 -2 9 31 17
32 18 32 11z m-2470 -40 c0 -2 -10 -9 -22 -15 -22 -11 -22 -10 -4 4 21 17 26
19 26 11z m2400 0 c0 -2 -10 -9 -22 -15 -22 -11 -22 -10 -4 4 21 17 26 19 26
11z m80 0 c0 -2 -10 -9 -22 -15 -22 -11 -22 -10 -4 4 21 17 26 19 26 11z
m-2750 -49 c0 -2 -7 -7 -16 -10 -8 -3 -12 -2 -9 4 6 10 25 14 25 6z m-40 -21
c0 -2 -10 -9 -22 -15 -22 -11 -22 -10 -4 4 21 17 26 19 26 11z m185 -4 c-16
-14 -105 -63 -105 -58 0 5 101 66 110 67 2 0 0 -4 -5 -9z m215 -26 c0 -2 -10
-9 -22 -15 -22 -11 -22 -10 -4 4 21 17 26 19 26 11z m-470 -10 c0 -2 -10 -9
-22 -15 -22 -11 -22 -10 -4 4 21 17 26 19 26 11z m410 -50 c0 -2 -10 -9 -22
-15 -22 -11 -22 -10 -4 4 21 17 26 19 26 11z m-60 -10 c0 -2 -10 -9 -22 -15
-22 -11 -22 -10 -4 4 21 17 26 19 26 11z m140 0 c0 -2 -10 -9 -22 -15 -22 -11
-22 -10 -4 4 21 17 26 19 26 11z m-130 -20 c0 -2 -13 -11 -30 -20 -38 -19 -40
-11 -2 9 31 17 32 18 32 11z m-140 -10 c0 -2 -10 -9 -22 -15 -22 -11 -22 -10
-4 4 21 17 26 19 26 11z m80 0 c0 -2 -13 -11 -30 -20 -38 -19 -40 -11 -2 9 31
17 32 18 32 11z m140 0 c0 -2 -10 -9 -22 -15 -22 -11 -22 -10 -4 4 21 17 26
19 26 11z m-270 -30 c0 -2 -10 -9 -22 -15 -22 -11 -22 -10 -4 4 21 17 26 19
26 11z m200 -10 c0 -2 -10 -9 -22 -15 -22 -11 -22 -10 -4 4 21 17 26 19 26 11z
m-270 -30 c0 -2 -10 -9 -22 -15 -22 -11 -22 -10 -4 4 21 17 26 19 26 11z m220
0 c0 -2 -13 -11 -30 -20 -38 -19 -40 -11 -2 9 31 17 32 18 32 11z m-10 -100
c0 -2 -13 -11 -30 -20 -38 -19 -40 -11 -2 9 31 17 32 18 32 11z m100 -10 c0
-2 -13 -11 -30 -20 -38 -19 -40 -11 -2 9 31 17 32 18 32 11z m-170 -30 c0 -2
-10 -9 -22 -15 -22 -11 -22 -10 -4 4 21 17 26 19 26 11z m100 -10 c0 -2 -10
-9 -22 -15 -22 -11 -22 -10 -4 4 21 17 26 19 26 11z m640 0 c0 -2 -13 -11 -30
-20 -38 -19 -40 -11 -2 9 31 17 32 18 32 11z m-330 -10 c0 -2 -13 -11 -30 -20
-38 -19 -40 -11 -2 9 31 17 32 18 32 11z m950 0 c0 -2 -10 -9 -22 -15 -22 -11
-22 -10 -4 4 21 17 26 19 26 11z m-1120 -10 c0 -2 -13 -11 -30 -20 -38 -19
-40 -11 -2 9 31 17 32 18 32 11z m430 1 c0 -2 -7 -7 -16 -10 -8 -3 -12 -2 -9
4 6 10 25 14 25 6z m840 -1 c0 -2 -10 -9 -22 -15 -22 -11 -22 -10 -4 4 21 17
26 19 26 11z m-1460 -10 c0 -2 -13 -11 -30 -20 -38 -19 -40 -11 -2 9 31 17 32
18 32 11z m1170 0 c0 -2 -10 -9 -22 -15 -22 -11 -22 -10 -4 4 21 17 26 19 26
11z m-1230 -10 c0 -2 -10 -9 -22 -15 -22 -11 -22 -10 -4 4 21 17 26 19 26 11z
m1320 0 c0 -2 -13 -11 -30 -20 -38 -19 -40 -11 -2 9 31 17 32 18 32 11z m-970
-10 c0 -2 -10 -9 -22 -15 -22 -11 -22 -10 -4 4 21 17 26 19 26 11z m270 0 c0
-2 -10 -9 -22 -15 -22 -11 -22 -10 -4 4 21 17 26 19 26 11z m850 0 c0 -2 -13
-11 -30 -20 -38 -19 -40 -11 -2 9 31 17 32 18 32 11z m-1540 -30 c0 -2 -10 -9
-22 -15 -22 -11 -22 -10 -4 4 21 17 26 19 26 11z m1320 0 c0 -2 -10 -9 -22
-15 -22 -11 -22 -10 -4 4 21 17 26 19 26 11z m550 0 c0 -2 -10 -9 -22 -15 -22
-11 -22 -10 -4 4 21 17 26 19 26 11z m-870 -10 c0 -2 -10 -9 -22 -15 -22 -11
-22 -10 -4 4 21 17 26 19 26 11z m180 -10 c0 -2 -10 -9 -22 -15 -22 -11 -22
-10 -4 4 21 17 26 19 26 11z m-340 -10 c0 -2 -10 -9 -22 -15 -22 -11 -22 -10
-4 4 21 17 26 19 26 11z m-800 -10 c0 -2 -10 -9 -22 -15 -22 -11 -22 -10 -4 4
21 17 26 19 26 11z m905 -4 c-16 -14 -105 -63 -105 -58 0 5 101 66 110 67 2 0
0 -4 -5 -9z m-245 -6 c0 -2 -10 -9 -22 -15 -22 -11 -22 -10 -4 4 21 17 26 19
26 11z m430 1 c0 -7 -123 -77 -127 -72 -2 2 24 20 59 40 66 37 68 38 68 32z
m1700 0 c0 -2 -7 -7 -16 -10 -8 -3 -12 -2 -9 4 6 10 25 14 25 6z m-2060 -21
c0 -2 -10 -9 -22 -15 -22 -11 -22 -10 -4 4 21 17 26 19 26 11z m1300 -10 c0
-2 -10 -9 -22 -15 -22 -11 -22 -10 -4 4 21 17 26 19 26 11z m-1350 -19 c0 -7
-72 -47 -77 -42 -3 2 12 14 34 25 42 22 43 23 43 17z m-120 -11 c0 -2 -18 -14
-40 -25 -22 -11 -40 -18 -40 -15 0 2 17 13 38 24 42 23 42 23 42 16z m1420 1
c0 -5 -69 -46 -78 -46 -6 1 69 50 76 50 1 0 2 -2 2 -4z m-1700 -11 c0 -2 -10
-9 -22 -15 -22 -11 -22 -10 -4 4 21 17 26 19 26 11z m-70 -40 c0 -2 -13 -11
-30 -20 -38 -19 -40 -11 -2 9 31 17 32 18 32 11z m2285 -55 c-3 -5 -12 -10
-18 -10 -7 0 -6 4 3 10 19 12 23 12 15 0z"/>
<path d="M2445 2130 c-3 -6 1 -7 9 -4 18 7 21 14 7 14 -6 0 -13 -4 -16 -10z"/>
<path d="M2430 2095 c-11 -13 -10 -14 5 -9 13 5 16 4 11 -4 -5 -8 -1 -10 10
-5 11 4 13 8 6 11 -7 2 -10 8 -6 13 9 15 -13 10 -26 -6z"/>
<path d="M2280 1990 c-9 -6 -10 -10 -3 -10 6 0 15 5 18 10 8 12 4 12 -15 0z"/>
<path d="M826 2415 c-11 -8 -15 -15 -10 -15 6 0 19 7 30 15 10 8 15 14 9 14
-5 0 -19 -6 -29 -14z"/>
<path d="M3894 2255 c-10 -8 -14 -15 -8 -15 5 0 19 7 30 15 10 8 14 15 8 15
-5 0 -19 -7 -30 -15z"/>
<path d="M898 2147 c-48 -28 -85 -53 -83 -55 4 -5 185 97 185 104 0 10 -20 0
-102 -49z"/>
<path d="M3874 1925 c-10 -8 -14 -15 -8 -15 5 0 19 7 30 15 10 8 14 15 8 15
-5 0 -19 -7 -30 -15z"/>
<path d="M856 1611 c-27 -16 -51 -36 -52 -45 -3 -21 0 -20 52 10 24 14 42 30
38 35 -3 5 1 6 9 3 8 -3 14 2 14 11 0 20 -4 19 -61 -14z m4 -16 c0 -2 -10 -9
-22 -15 -22 -11 -22 -10 -4 4 21 17 26 19 26 11z"/>
<path d="M917 1495 c-63 -38 -72 -41 -61 -23 5 8 1 9 -12 5 -18 -7 -18 -7 0 8
11 8 15 15 10 15 -13 0 -52 -29 -40 -30 5 0 2 -7 -5 -17 -13 -15 -12 -15 8 -5
33 18 38 14 12 -9 l-24 -21 25 14 c14 8 55 32 93 52 37 21 67 40 67 42 0 9
-18 2 -73 -31z"/>
<path d="M830 1289 l-25 -20 33 16 c17 8 32 18 32 20 0 10 -16 4 -40 -16z"/>
<path d="M888 1258 c-48 -29 -86 -54 -84 -56 4 -4 186 98 186 104 0 10 -21 0
-102 -48z"/>
<path d="M2764 1285 c-10 -8 -14 -15 -8 -15 5 0 19 7 30 15 10 8 14 15 8 15
-5 0 -19 -7 -30 -15z"/>
<path d="M1454 1215 c-18 -13 -18 -14 4 -8 12 3 25 9 28 14 8 14 -10 11 -32
-6z"/>
</g>
</svg>
