<?xml version="1.0" standalone="no"?>
<!DOCTYPE svg PUBLIC "-//W3C//DTD SVG 20010904//EN"
 "http://www.w3.org/TR/2001/REC-SVG-20010904/DTD/svg10.dtd">
<svg version="1.0" xmlns="http://www.w3.org/2000/svg"
 width="280.000000pt" height="280.000000pt" viewBox="0 0 280.000000 280.000000"
 preserveAspectRatio="xMidYMid meet">

<g transform="translate(0.000000,280.000000) scale(0.100000,-0.100000)"
fill="#000000" stroke="none">
<path d="M1246 2760 c-463 -58 -853 -336 -1065 -759 -115 -228 -169 -523 -142
-775 48 -439 274 -812 635 -1047 107 -70 265 -141 312 -141 60 0 64 9 64 162
l0 137 -57 -9 c-186 -30 -328 44 -405 210 -45 99 -83 150 -144 194 -70 50 -69
88 4 88 74 0 152 -52 214 -143 78 -115 135 -150 243 -150 39 1 88 7 110 15 35
13 41 20 51 61 6 26 24 67 39 93 15 25 25 47 23 48 -1 2 -37 9 -78 16 -269 46
-436 192 -501 437 -16 60 -22 111 -22 218 -2 128 1 146 25 212 14 40 44 100
67 133 23 33 39 65 36 69 -2 5 -9 41 -15 81 -10 73 -2 160 22 244 l12 38 61
-4 c64 -6 177 -52 267 -109 l48 -31 88 18 c121 26 392 26 513 1 l85 -18 75 43
c115 68 176 91 243 92 l60 1 17 -55 c20 -63 25 -214 8 -273 -9 -35 -8 -41 30
-98 75 -113 107 -242 96 -389 -19 -245 -102 -411 -258 -511 -67 -43 -183 -85
-286 -102 l-72 -12 26 -35 c53 -72 59 -113 60 -387 0 -283 1 -288 69 -286 48
1 207 73 312 142 484 315 725 889 614 1462 -107 554 -530 989 -1070 1099 -114
23 -312 33 -414 20z m365 -105 c257 -48 483 -167 669 -354 190 -191 318 -439
365 -707 20 -114 19 -343 -1 -459 -61 -357 -270 -675 -572 -872 -70 -46 -218
-123 -236 -123 -3 0 -6 96 -6 213 0 151 -4 228 -14 267 -8 30 -14 55 -13 55 1
0 40 13 87 28 230 76 377 234 442 472 17 65 21 110 22 240 1 143 -2 168 -23
233 -13 40 -40 101 -61 134 -33 55 -36 66 -29 102 19 95 0 244 -41 341 -16 38
-25 46 -62 56 -81 22 -227 -17 -360 -97 l-57 -35 -88 17 c-119 24 -357 24
-476 0 l-88 -17 -57 35 c-138 83 -282 121 -362 95 -44 -15 -45 -16 -72 -95
-32 -95 -44 -204 -31 -286 10 -59 9 -62 -24 -112 -18 -28 -46 -87 -61 -131
-25 -74 -27 -91 -26 -240 1 -132 5 -174 23 -240 26 -98 67 -185 112 -245 54
-70 55 -73 11 -51 -124 63 -249 39 -280 -53 -18 -56 9 -110 84 -167 50 -38 66
-57 104 -135 25 -49 54 -103 64 -119 l19 -29 -29 23 c-78 61 -216 245 -283
379 -47 93 -98 253 -116 362 -19 123 -19 342 0 456 9 49 31 136 51 193 149
446 505 765 962 861 113 24 336 26 453 5z m-883 -1874 c45 -31 93 -53 177 -82
65 -22 79 -31 77 -46 -6 -26 -21 -33 -78 -33 -66 0 -103 25 -166 113 -26 37
-45 67 -42 67 3 0 18 -8 32 -19z m72 -537 c30 -8 78 -14 107 -14 l53 0 0 -45
c0 -25 -2 -45 -4 -45 -3 0 -38 15 -78 33 -72 33 -192 105 -153 92 11 -3 45
-13 75 -21z"/>
</g>
</svg>
