<?xml version="1.0" standalone="no"?>
<!DOCTYPE svg PUBLIC "-//W3C//DTD SVG 20010904//EN"
 "http://www.w3.org/TR/2001/REC-SVG-20010904/DTD/svg10.dtd">
<svg version="1.0" xmlns="http://www.w3.org/2000/svg"
 width="512.000000pt" height="512.000000pt" viewBox="0 0 512.000000 512.000000"
 preserveAspectRatio="xMidYMid meet">

<g transform="translate(0.000000,512.000000) scale(0.100000,-0.100000)"
fill="#000000" stroke="none">
<path d="M523 5059 c-353 -33 -581 -345 -508 -694 23 -108 68 -190 149 -271
116 -116 242 -165 426 -166 180 0 314 49 431 160 113 106 169 240 170 403 0
167 -57 305 -171 413 -131 123 -292 174 -497 155z m192 -233 c105 -27 171 -81
217 -174 30 -60 33 -75 33 -157 0 -82 -3 -97 -33 -157 -59 -121 -178 -187
-335 -188 -199 0 -339 109 -367 287 -29 180 73 340 248 388 62 17 175 18 237
1z"/>
<path d="M110 1895 l0 -1845 498 2 497 3 3 1843 2 1842 -500 0 -500 0 0 -1845z
m780 0 l0 -1615 -280 0 -280 0 0 1615 0 1615 280 0 280 0 0 -1615z"/>
<path d="M1672 1898 l3 -1843 552 -3 552 -2 4 1027 c3 1147 1 1104 74 1251 58
117 142 190 262 228 62 20 318 30 396 15 196 -36 385 -210 454 -418 37 -112
41 -209 41 -1170 l0 -933 555 0 555 0 0 1083 c0 1138 -3 1236 -45 1442 -48
232 -138 445 -262 616 -115 159 -305 320 -481 408 -89 45 -250 97 -357 116
-201 36 -510 14 -715 -51 -136 -42 -314 -139 -392 -212 -15 -14 -29 -24 -31
-21 -3 2 -10 72 -18 154 l-14 150 -568 3 -567 2 2 -1842z m932 1590 c3 -13 12
-99 21 -193 8 -93 18 -185 21 -202 l5 -33 88 0 88 0 38 57 c137 206 376 341
678 382 649 89 1173 -299 1313 -969 39 -187 44 -342 44 -1322 l0 -928 -335 0
-334 0 -3 897 c-3 891 -4 899 -26 978 -86 314 -321 554 -611 626 -75 19 -104
21 -265 16 -282 -7 -399 -48 -536 -187 -122 -123 -178 -241 -214 -449 -14 -82
-16 -213 -16 -988 l0 -893 -335 0 -335 0 0 1615 0 1615 355 0 355 0 4 -22z"/>
</g>
</svg>
