<?xml version="1.0" standalone="no"?>
<!DOCTYPE svg PUBLIC "-//W3C//DTD SVG 20010904//EN"
 "http://www.w3.org/TR/2001/REC-SVG-20010904/DTD/svg10.dtd">
<svg version="1.0" xmlns="http://www.w3.org/2000/svg"
 width="512.000000pt" height="512.000000pt" viewBox="0 0 512.000000 512.000000"
 preserveAspectRatio="xMidYMid meet">

<g transform="translate(0.000000,512.000000) scale(0.100000,-0.100000)"
fill="#000000" stroke="none">
<path d="M3345 4659 c-201 -27 -434 -126 -578 -245 -239 -196 -396 -454 -453
-746 -12 -61 -21 -88 -31 -88 -58 0 -436 113 -601 179 -335 134 -643 350 -952
666 -47 47 -97 93 -112 101 -58 30 -160 12 -205 -37 -28 -31 -126 -235 -152
-319 -85 -269 -76 -552 24 -797 31 -76 31 -83 3 -83 -13 0 -46 -11 -74 -24
-83 -38 -133 -121 -134 -219 -1 -117 147 -424 287 -595 23 -30 43 -58 43 -62
0 -5 -9 -12 -21 -15 -35 -11 -101 -77 -120 -120 -31 -67 -25 -145 19 -250 112
-268 287 -469 507 -583 l50 -25 -50 -14 c-103 -28 -279 -53 -434 -62 -177 -11
-222 -23 -279 -81 -55 -55 -76 -106 -77 -185 0 -96 35 -160 125 -227 322 -238
968 -378 1760 -380 359 -2 574 30 868 129 221 73 405 163 612 298 294 191 558
447 769 743 333 468 541 1068 568 1630 l6 143 48 35 c163 119 332 382 355 551
12 92 -35 193 -114 243 l-23 15 27 60 c33 75 43 175 22 225 -35 83 -110 137
-203 147 -46 5 -66 0 -181 -47 -71 -29 -203 -82 -293 -116 l-163 -63 -80 40
c-301 151 -544 208 -763 178z m320 -322 c111 -34 216 -77 343 -141 60 -30 124
-57 143 -61 39 -7 163 29 334 97 55 22 122 49 148 59 32 13 46 15 40 7 -52
-84 -75 -129 -84 -160 -26 -97 57 -208 156 -208 19 0 35 -2 35 -5 0 -15 -48
-96 -86 -146 -41 -53 -103 -106 -190 -163 -72 -47 -82 -77 -93 -289 -20 -367
-81 -651 -206 -963 -314 -782 -960 -1367 -1715 -1553 -216 -53 -319 -64 -590
-63 -582 1 -1068 77 -1405 220 l-110 46 50 7 c28 4 95 12 150 19 208 23 428
84 615 172 118 55 145 76 171 133 24 52 24 89 -2 142 -29 60 -66 82 -190 114
-277 71 -429 179 -553 392 -30 51 -28 54 32 33 23 -8 74 -19 114 -25 121 -17
184 8 225 89 49 96 22 171 -95 257 -169 126 -341 320 -426 482 -32 61 -35 73
-20 68 11 -4 52 -18 93 -33 111 -38 194 -18 241 58 50 81 40 142 -43 251 -84
110 -119 167 -162 262 -70 153 -95 312 -75 470 12 85 55 245 66 245 3 0 51
-42 107 -94 443 -409 859 -618 1536 -771 85 -19 171 -35 192 -35 107 0 178 81
179 203 0 138 61 339 142 474 200 332 604 510 933 410z"/>
</g>
</svg>
